HIERARCHY
ROOT Hips
{
	OFFSET -3.958830 18.904000 13.208200
	CHANNELS 6 Xposition Yposition Zposition Zrotation Yrotation Xrotation 
	JOINT LHipJoint
	{
		OFFSET 0.000000 0.000000 0.000000
		CHANNELS 3 Zrotation Yrotation Xrotation
		JOINT LeftUpLeg
		{
			OFFSET 1.800000 -1.400000 0.085000
			CHANNELS 3 Zrotation Yrotation Xrotation
			JOINT LeftLeg
			{
				OFFSET 2.215000 -6.000000 0.000000
				CHANNELS 3 Zrotation Yrotation Xrotation
				JOINT LeftFoot
				{
					OFFSET 2.500000 -6.900000 0.000000
					CHANNELS 3 Zrotation Yrotation Xrotation
					JOINT LeftToeBase
					{
						OFFSET 0.200000 -0.500000 1.950000
						CHANNELS 3 Zrotation Yrotation Xrotation
						End Site
						{
							OFFSET 0.000000 0.000000 0.000000
						}
					}
				}
			}
		}
	}
	JOINT RHipJoint
	{
		OFFSET 0.000000 0.000000 0.000000
		CHANNELS 3 Zrotation Yrotation Xrotation
		JOINT RightUpLeg
		{
			OFFSET -1.800000 -1.400000 0.085000
			CHANNELS 3 Zrotation Yrotation Xrotation
			JOINT RightLeg
			{
				OFFSET -2.215000 -6.000000 0.000000
				CHANNELS 3 Zrotation Yrotation Xrotation
				JOINT RightFoot
				{
					OFFSET -2.500000 -6.900000 0.000000
					CHANNELS 3 Zrotation Yrotation Xrotation
					JOINT RightToeBase
					{
						OFFSET -0.200000 -0.500000 1.950000
						CHANNELS 3 Zrotation Yrotation Xrotation
						End Site
						{
							OFFSET 0.000000 0.000000 0.000000
						}
					}
				}
			}
		}
	}
	JOINT LowerBack
	{
		OFFSET 0.000000 0.000000 0.000000
		CHANNELS 3 Zrotation Yrotation Xrotation
		JOINT Spine
		{
			OFFSET -0.087000 1.940000 -0.288900
			CHANNELS 3 Zrotation Yrotation Xrotation
			JOINT Spine1
			{
				OFFSET 0.000000 1.950000 0.060000
				CHANNELS 3 Zrotation Yrotation Xrotation
				JOINT Neck
				{
					OFFSET 0.000000 0.000000 0.000000
					CHANNELS 3 Zrotation Yrotation Xrotation
					JOINT Neck1
					{
						OFFSET 0.000000 1.600000 0.340000
						CHANNELS 3 Zrotation Yrotation Xrotation
						JOINT Head
						{
							OFFSET 0.000000 1.667000 -0.240000
							CHANNELS 3 Zrotation Yrotation Xrotation
							End Site
							{
								OFFSET 0.000000 0.000000 0.000000
							}
						}
					}
				}
				JOINT LeftShoulder
				{
					OFFSET 0.000000 0.000000 0.000000
					CHANNELS 3 Zrotation Yrotation Xrotation
					JOINT LeftArm
					{
						OFFSET 2.700000 1.550000 -0.730000
						CHANNELS 3 Zrotation Yrotation Xrotation
						JOINT LeftForeArm
						{
							OFFSET 5.450000 0.000000 0.000000
							CHANNELS 3 Zrotation Yrotation Xrotation
							JOINT LeftHand
							{
								OFFSET 3.450000 0.000000 0.000000
								CHANNELS 3 Zrotation Yrotation Xrotation
								JOINT LeftHandIndex1
								{
									OFFSET 0.750000 0.000000 0.000000
									CHANNELS 3 Zrotation Yrotation Xrotation
									End Site
									{
										OFFSET 0.000000 0.000000 0.000000
									}
								}
							}
						}
					}
				}
				JOINT RightShoulder
				{
					OFFSET 0.000000 0.000000 0.000000
					CHANNELS 3 Zrotation Yrotation Xrotation
					JOINT RightArm
					{
						OFFSET -2.700000 1.550000 -0.730000
						CHANNELS 3 Zrotation Yrotation Xrotation
						JOINT RightForeArm
						{
							OFFSET -5.450000 0.000000 0.000000
							CHANNELS 3 Zrotation Yrotation Xrotation
							JOINT RightHand
							{
								OFFSET -3.450000 0.000000 0.000000
								CHANNELS 3 Zrotation Yrotation Xrotation
								JOINT RightHandIndex1
								{
									OFFSET -0.750000 0.000000 0.000000
									CHANNELS 3 Zrotation Yrotation Xrotation
									End Site
									{
										OFFSET 0.000000 0.000000 0.000000
									}
								}
							}
						}
					}
				}
			}
		}
	}
}
MOTION
Frames: 14
Frame Time: 0.016667
0.050160 17.214210 -1.616130 -6.329240 0.930829 -3.259200 -15.625256 13.641635 3.340147 4.070067 1.430958 1.826034 -7.275882 4.961820 1.694799 0.166347 4.432198 3.225653 0.246590 0.103210 0.142370 17.600410 -10.692605 2.745419 -25.362253 -0.540461 -6.053492 4.041896 -4.532716 3.843562 -0.360660 -4.188739 2.955363 0.053620 0.133550 0.110750 -2.021809 -2.635105 -8.224093 -0.446632 3.169115 8.888193 7.821917 1.679584 5.932491 2.156589 -1.411709 -18.087804 -6.845297 2.675136 51.300668 0.444900 -0.518440 -0.524770 -9.797361 -16.881437 7.634134 0.879058 -4.117318 0.339473 12.365931 -1.252268 -0.444170 -4.018992 2.638404 0.313820 0.060690 0.037170 0.137730 7.788552 20.316915 12.997605 0.113696 2.203028 -1.171754 -6.987525 -13.268294 0.985215 3.034384 -1.073951 -0.072450 0.159260 -0.037400 -0.090890 
0.048460 17.211780 -1.612520 -6.400439 0.970232 -3.106449 -15.612635 13.632299 3.338011 4.193293 1.394224 1.704077 -7.325475 4.955445 1.662893 0.158223 4.433601 3.227233 0.242250 0.092210 0.140230 17.610395 -10.704747 2.751075 -25.289820 -0.529673 -6.152159 4.136563 -4.545029 3.869102 -0.357465 -4.184731 2.958538 0.048920 0.137890 0.112030 -2.053957 -2.596813 -8.227227 -0.265015 3.068981 8.711738 7.628268 1.652997 5.698291 2.154061 -1.384150 -18.023735 -6.790882 2.675771 51.366657 0.417990 -0.503110 -0.352070 -9.831952 -16.785671 7.597440 1.015341 -3.990645 0.334068 12.308386 -1.385925 -0.449838 -4.020356 2.636477 0.318030 0.063480 0.032910 0.137660 7.798279 20.160042 12.937186 0.129785 2.212505 -1.136837 -6.883546 -13.210737 0.980633 3.026806 -1.074131 -0.077420 0.159300 -0.033190 -0.094210 
0.038630 17.211620 -1.614240 -6.165622 0.871153 -3.478516 -15.627081 13.631459 3.339860 4.020930 1.496758 2.138620 -7.232652 4.974740 1.658457 0.163389 4.468522 3.216955 0.241570 0.092840 0.141080 17.603936 -10.697435 2.734036 -25.302757 -0.556444 -5.779379 4.070413 -4.567208 3.892818 -0.361500 -4.218909 2.945520 0.054460 0.140590 0.112490 -2.022853 -2.614029 -8.201194 -0.750573 3.192686 8.948605 7.794548 1.631687 6.351461 2.154863 -1.406963 -18.196695 -6.690554 2.701385 51.043748 0.304630 -0.364290 -0.460850 -9.177820 -16.811503 7.772104 0.577195 -3.869167 0.397852 12.404744 -0.935087 -0.434847 -4.036539 2.632931 0.315130 0.067520 0.029930 0.135460 7.148471 20.305042 13.060621 0.612382 2.360026 -1.122439 -6.777393 -13.643574 1.007361 3.039024 -1.076038 -0.081270 0.161100 -0.030930 -0.095730 
0.027740 17.208630 -1.615320 -5.976967 0.731133 -3.747975 -15.637617 13.628004 3.336195 3.945929 1.574520 2.452799 -7.203544 5.001555 1.673227 0.163706 4.503418 3.205515 0.236620 0.089690 0.137580 17.601527 -10.683142 2.723679 -25.321977 -0.569549 -5.489136 4.142228 -4.602794 3.899530 -0.361852 -4.255453 2.932043 0.058720 0.145910 0.112300 -2.002108 -2.633550 -8.174246 -1.154747 3.281060 9.112046 7.959008 1.593094 6.852445 2.144920 -1.459435 -18.272292 -6.638867 2.797828 50.560390 0.164730 -0.133630 -0.553780 -8.546488 -16.725525 7.913798 0.172722 -3.684564 0.474334 12.399786 -0.578955 -0.417142 -4.053594 2.630642 0.311190 0.074570 0.023110 0.131180 6.535201 20.335366 13.088689 0.919561 2.595560 -1.112790 -6.624953 -14.012989 1.016286 3.047042 -1.077202 -0.087180 0.162490 -0.024620 -0.098150 
0.017920 17.205570 -1.614970 -5.943174 0.458662 -3.976388 -15.633453 13.624589 3.334843 4.081917 1.630856 2.731073 -7.275309 5.045001 1.670785 0.167114 4.548467 3.192073 0.232540 0.085540 0.136280 17.608707 -10.674437 2.726716 -25.255477 -0.569082 -5.270652 4.284980 -4.629270 3.844577 -0.362730 -4.281356 2.924104 0.060440 0.152420 0.113240 -2.013789 -2.637071 -8.169355 -1.140237 3.277791 9.297370 7.835448 1.593422 7.148229 2.146138 -1.553671 -18.331607 -6.693061 2.988101 50.241550 0.088170 0.121180 -0.606420 -8.005207 -16.574897 8.023728 -0.160714 -3.398983 0.532890 12.406693 -0.257236 -0.399456 -4.070238 2.626123 0.308960 0.081340 0.017470 0.127420 5.969135 20.328614 13.083007 1.314363 2.919262 -1.089609 -6.590239 -14.291212 1.038882 3.052832 -1.078590 -0.092030 0.164700 -0.019050 -0.100290 
0.010500 17.201440 -1.614290 -6.005010 0.167659 -4.122615 -15.621314 13.616893 3.331961 4.323525 1.661947 2.944532 -7.348515 5.078932 1.628665 0.165961 4.590976 3.180456 0.230260 0.081310 0.135280 17.621436 -10.661152 2.746713 -25.210922 -0.555799 -5.120056 4.567646 -4.660941 3.697368 -0.364146 -4.309906 2.919376 0.062150 0.159980 0.112710 -2.044574 -2.632283 -8.181510 -0.847273 3.208873 9.480144 7.545393 1.616453 7.218122 2.172549 -1.662754 -18.331696 -6.788192 3.204857 49.975725 0.009940 0.373860 -0.676240 -7.568929 -16.339485 8.066491 -0.440810 -3.104667 0.578075 12.438988 -0.064970 -0.389130 -4.085017 2.620000 0.309130 0.088770 0.010120 0.125330 5.443562 20.246622 13.033074 1.711105 3.274711 -1.057578 -6.557655 -14.562014 1.066006 3.052820 -1.079748 -0.098370 0.169550 -0.013240 -0.104410 
0.002690 17.201590 -1.614360 -5.983513 -0.174615 -4.254728 -15.614141 13.616192 3.335832 4.304719 1.704342 3.154621 -7.281060 5.084554 1.610263 0.162223 4.611537 3.175894 0.228350 0.079420 0.134240 17.627855 -10.653344 2.765362 -25.105243 -0.533359 -4.978131 4.496725 -4.614492 3.406509 -0.368135 -4.312844 2.921920 0.065070 0.166450 0.111330 -2.058339 -2.630948 -8.198641 -0.708326 3.148327 9.653947 7.336977 1.650458 7.025690 2.222729 -1.793712 -18.328405 -6.967372 3.481286 50.116141 -0.001370 0.588510 -0.742480 -7.331490 -16.060459 8.060832 -0.691074 -2.777716 0.603831 12.528763 0.109274 -0.377090 -4.094706 2.609656 0.313360 0.091990 0.008530 0.125230 5.096872 20.166928 12.961632 1.822644 3.643397 -0.989558 -6.232241 -14.776557 1.058316 3.052786 -1.071135 -0.105720 0.178160 -0.008940 -0.106420 
-0.010300 17.206080 -1.615450 -5.703023 -0.582780 -4.369201 -15.618624 13.603761 3.342417 3.898219 1.778084 3.386405 -7.104897 5.059878 1.591083 0.154879 4.606318 3.176685 0.229450 0.082320 0.136090 17.626926 -10.647697 2.778178 -25.058908 -0.505160 -4.907310 4.230736 -4.535506 3.077737 -0.372008 -4.304541 2.926135 0.070590 0.168020 0.108290 -2.042712 -2.608973 -8.200911 -1.144906 3.236277 9.757145 7.427523 1.738629 6.679144 2.224472 -1.879246 -18.297073 -7.046337 3.720195 50.493629 0.041060 0.783780 -0.879120 -7.196903 -15.777425 8.006931 -0.856476 -2.555671 0.625425 12.587475 0.307980 -0.362633 -4.102354 2.595880 0.319340 0.091750 0.010210 0.123860 4.986347 20.074562 12.867957 1.775257 3.986384 -0.926614 -5.857129 -14.999857 1.044214 3.051484 -1.060499 -0.111940 0.186890 -0.006160 -0.109380 
-0.019900 17.209480 -1.615940 -5.630061 -0.887107 -4.477745 -15.614585 13.593894 3.347935 3.797487 1.816557 3.579779 -7.004442 5.042957 1.511726 0.152436 4.612199 3.174290 0.234790 0.088040 0.144230 17.631232 -10.641201 2.798252 -24.986343 -0.480151 -4.778657 4.136267 -4.485407 2.775546 -0.378948 -4.307953 2.925125 0.076390 0.166010 0.107640 -2.049045 -2.590416 -8.217708 -1.115935 3.215965 9.870651 7.254258 1.798645 6.377403 2.291129 -1.932076 -18.242733 -7.076067 3.891738 50.816242 -0.033480 0.971850 -0.988000 -7.187347 -15.544812 7.921460 -0.790984 -2.442909 0.643644 12.552763 0.615711 -0.342803 -4.111491 2.584771 0.322910 0.091130 0.013290 0.122660 4.836163 19.993339 12.779463 1.836880 4.344316 -0.858940 -5.606998 -15.216177 1.040674 3.053010 -1.057679 -0.114430 0.190920 -0.007950 -0.112490 
-0.024510 17.210540 -1.615430 -5.779992 -1.136561 -4.556358 -15.600370 13.590649 3.353712 4.006130 1.822334 3.734719 -7.004764 5.041657 1.383049 0.153152 4.636297 3.169722 0.236010 0.088430 0.144190 17.642199 -10.636557 2.821543 -24.817850 -0.456788 -4.649104 4.120059 -4.440960 2.487714 -0.383179 -4.312191 2.928344 0.080120 0.170360 0.107060 -2.080981 -2.579235 -8.247399 -0.586452 3.087497 9.966999 6.856844 1.827570 6.216261 2.370421 -2.029242 -18.231676 -7.225726 4.070322 50.989464 -0.081340 1.083790 -0.908200 -7.193154 -15.390931 7.872690 -0.734738 -2.323306 0.663655 12.517611 0.957907 -0.321341 -4.122589 2.577295 0.324020 0.094230 0.011300 0.125420 4.654890 19.982583 12.738825 1.903132 4.615870 -0.804449 -5.443331 -15.372012 1.038884 3.052996 -1.057732 -0.118990 0.195140 -0.008140 -0.113400 
-0.033320 17.213200 -1.614220 -5.649944 -1.323098 -4.573392 -15.601483 13.573341 3.361185 3.813899 1.854605 3.879517 -6.898929 5.002319 1.219196 0.153723 4.632629 3.172125 0.239310 0.091240 0.148010 17.643692 -10.630607 2.834306 -24.785830 -0.433152 -4.576029 4.018868 -4.400444 2.256372 -0.387720 -4.317679 2.926658 0.083120 0.171410 0.108300 -2.077665 -2.553140 -8.255073 -0.734884 3.082994 9.885646 6.856513 1.831523 5.980438 2.389292 -2.050372 -18.208034 -7.214495 4.204796 51.297515 -0.095650 1.221750 -0.808820 -7.175303 -15.259273 7.845165 -0.674686 -2.242871 0.709080 12.302779 1.248336 -0.298721 -4.131020 2.570918 0.324130 0.095780 0.011920 0.126680 4.610671 19.917913 12.656907 1.866766 4.864154 -0.773515 -5.323905 -15.561363 1.043318 3.055854 -1.060211 -0.119810 0.195700 -0.010210 -0.113990 
-0.041250 17.214060 -1.613970 -5.616641 -1.462452 -4.597714 -15.602792 13.561211 3.359680 3.814631 1.870210 3.968286 -6.842977 4.983249 1.105151 0.154425 4.635479 3.172769 0.240360 0.093870 0.150440 17.645254 -10.616351 2.848719 -24.801039 -0.416376 -4.505903 4.075954 -4.387896 2.065741 -0.390690 -4.332204 2.923035 0.085900 0.172760 0.106580 -2.075370 -2.545926 -8.259159 -0.751695 3.082997 9.837171 6.849945 1.834304 5.877952 2.424074 -2.041531 -18.151604 -7.153913 4.262066 51.343570 -0.187370 1.354530 -0.778120 -7.112649 -15.142586 7.813808 -0.581818 -2.282500 0.771455 11.961357 1.578521 -0.275463 -4.140849 2.562429 0.321710 0.098520 0.010220 0.126500 4.478003 19.824753 12.580796 1.879049 5.047798 -0.753909 -5.251852 -15.732333 1.046227 3.058410 -1.062745 -0.121340 0.197570 -0.011500 -0.114780 
-0.044630 17.212260 -1.614930 -5.817506 -1.610984 -4.659166 -15.590727 13.560695 3.359764 4.127817 1.860354 4.053587 -6.900735 4.992501 0.990686 0.160093 4.659984 3.168453 0.239840 0.096060 0.146340 17.655792 -10.607326 2.862197 -24.741754 -0.411840 -4.457037 4.271493 -4.396850 1.987202 -0.391454 -4.344341 2.921162 0.089490 0.178300 0.105150 -2.105877 -2.551707 -8.275946 -0.231165 2.965057 9.939222 6.566884 1.828211 5.885641 2.451104 -2.102091 -18.088212 -7.215763 4.358545 51.101394 -0.159480 1.420980 -0.759120 -7.020509 -15.017609 7.790656 -0.616606 -2.232415 0.795375 11.885345 1.720509 -0.263654 -4.146843 2.563026 0.316930 0.102340 0.006550 0.129890 4.289835 19.765557 12.511898 1.899499 5.274820 -0.733551 -5.222661 -15.828315 1.043061 3.060180 -1.066751 -0.123310 0.200620 -0.012010 -0.112490 
-0.049950 17.212470 -1.616580 -5.772856 -1.751332 -4.708244 -15.590977 13.552871 3.363933 4.090196 1.880131 4.155926 -6.885126 4.980284 0.883077 0.168694 4.661763 3.168349 0.243620 0.102380 0.150410 17.657547 -10.600929 2.865428 -24.779936 -0.405406 -4.434835 4.103049 -4.357819 1.848637 -0.394308 -4.344006 2.920777 0.091400 0.176650 0.106610 -2.105786 -2.546763 -8.279652 -0.242548 2.952132 9.956035 6.546677 1.816667 5.882486 2.461650 -2.096826 -18.082482 -7.159136 4.391752 51.072233 -0.198890 1.519720 -0.762880 -6.920520 -14.972164 7.814141 -0.555101 -2.165721 0.841776 11.571721 1.882887 -0.248310 -4.150547 2.561647 0.312160 0.102760 0.008650 0.130940 4.162473 19.740674 12.466158 1.952966 5.463165 -0.733040 -5.363230 -15.896902 1.061719 3.066112 -1.072772 -0.118930 0.198400 -0.016410 -0.110460 
